<svg xmlns="http://www.w3.org/2000/svg" viewBox="0 0 33.14 33.45"><title>canali-fisici</title><g id="Layer_2" data-name="Layer 2"><g id="Layer_1-2" data-name="Layer 1"><path d="M24,6.47a12.68,12.68,0,0,1,1.06.88.67.67,0,0,0,.91-1,12.26,12.26,0,0,0-1.18-1A.67.67,0,1,0,24,6.47Z"/><path d="M5.73,14.34a3.52,3.52,0,1,0,3.51,3.52,3.52,3.52,0,0,0-3.51-3.52Zm0,5.7a2.18,2.18,0,1,1,2.18-2.18A2.19,2.19,0,0,1,5.73,20Z"/><path d="M20.1,5.73a3.51,3.51,0,1,0-3.51,3.51A3.51,3.51,0,0,0,20.1,5.73Zm-5.69,0a2.18,2.18,0,1,1,2.18,2.18,2.19,2.19,0,0,1-2.18-2.18Z"/><path d="M30.3,18.43a13.48,13.48,0,0,0,.13-1.9,13.75,13.75,0,0,0-2.83-8.4A.67.67,0,0,0,26.66,8a.66.66,0,0,0-.12.93,12.48,12.48,0,0,1,2.56,7.6c0,.45,0,.9-.07,1.35a5.82,5.82,0,0,0-1.62-.23,5.74,5.74,0,0,0-5.73,5.73A9.3,9.3,0,0,0,23,27.27a12.55,12.55,0,0,1-15.2-1.78c.32-.46.66-1,1-1.52,1.75-2.77,2.63-4.83,2.63-6.11a5.74,5.74,0,0,0-5.73-5.74,5.62,5.62,0,0,0-.92.08,12.58,12.58,0,0,1,6.06-6.83c0,.12,0,.24,0,.36,0,1.29.89,3.34,2.63,6.11,1.27,2,2.52,3.64,2.57,3.71a.67.67,0,0,0,1.06,0c.05-.07,1.3-1.7,2.57-3.71C21.43,9.07,22.32,7,22.32,5.73a5.73,5.73,0,0,0-11.1-2,13.93,13.93,0,0,0-8,9A5.74,5.74,0,0,0,0,17.86C0,19.14.89,21.2,2.64,24c1.26,2,2.51,3.63,2.56,3.7a.67.67,0,0,0,1.06,0s.33-.44.79-1.07A13.69,13.69,0,0,0,11,29.22a13.86,13.86,0,0,0,12.68-.79c.2.34.41.69.64,1.06,1.27,2,2.52,3.63,2.57,3.7a.67.67,0,0,0,1.06,0c0-.07,1.3-1.7,2.56-3.7,1.75-2.77,2.64-4.83,2.64-6.11a5.73,5.73,0,0,0-2.84-4.95ZM16.59,1.33A4.41,4.41,0,0,1,21,5.73c0,1.87-2.81,6.12-4.4,8.3-1.59-2.18-4.4-6.43-4.4-8.3a4.41,4.41,0,0,1,4.4-4.4ZM5.73,26.15c-1.59-2.18-4.4-6.42-4.4-8.29a4.4,4.4,0,0,1,8.8,0c0,1.87-2.81,6.11-4.4,8.29Zm21.68,5.52C25.82,29.5,23,25.25,23,23.38a4.4,4.4,0,0,1,8.8,0c0,1.87-2.81,6.12-4.4,8.29Z"/><path d="M27.41,19.86a3.52,3.52,0,1,0,3.51,3.52,3.52,3.52,0,0,0-3.51-3.52Zm0,5.7a2.18,2.18,0,1,1,2.18-2.18,2.19,2.19,0,0,1-2.18,2.18Z"/></g></g></svg>