<svg xmlns="http://www.w3.org/2000/svg" viewBox="0 0 33.31 31.09"><defs><style>.cls-1{fill:#1d1d1b;}</style></defs><title>canali-digitali</title><g id="Layer_2" data-name="Layer 2"><g id="Layer_1-2" data-name="Layer 1"><path class="cls-1" d="M31.65,15V2.78A2.79,2.79,0,0,0,28.87,0H4.44A2.78,2.78,0,0,0,1.67,2.78V11.1A1.67,1.67,0,0,0,0,12.77V29.43a1.67,1.67,0,0,0,1.67,1.66H13.88a1.67,1.67,0,0,0,1.67-1.66H20.2a1.65,1.65,0,0,0,1.32-.66,1.67,1.67,0,0,0,.29-1.45l-1.1-4h3.16v6.11a1.67,1.67,0,0,0,1.67,1.66h6.11a1.67,1.67,0,0,0,1.66-1.66V16.66A1.67,1.67,0,0,0,31.65,15Zm.55,1.67v1.11H25V16.66a.56.56,0,0,1,.56-.56h6.11A.56.56,0,0,1,32.2,16.66ZM25,18.88H32.2V27.2H25ZM2.78,2.78A1.66,1.66,0,0,1,4.44,1.11H28.87a1.67,1.67,0,0,1,1.67,1.67V15h-5a1.67,1.67,0,0,0-1.67,1.67v1.11H15.55v-5a1.67,1.67,0,0,0-1.67-1.67H2.78ZM14.44,27.2H1.11V15H14.44Zm-12.77-15H13.88a.56.56,0,0,1,.56.56v1.11H1.11V12.77A.56.56,0,0,1,1.67,12.21ZM13.88,30H1.67a.56.56,0,0,1-.56-.55V28.32H14.44v1.11A.56.56,0,0,1,13.88,30Zm6.76-1.88a.56.56,0,0,1-.44.22H15.55V27.2h5.07l.11.41A.54.54,0,0,1,20.64,28.1Zm-.32-2H15.55V23.32h4Zm-4.77-3.88V18.88h8.32v3.33ZM31.65,30H25.54a.56.56,0,0,1-.56-.55V28.32H32.2v1.11A.55.55,0,0,1,31.65,30Z"/></g></g></svg>