<svg xmlns="http://www.w3.org/2000/svg" viewBox="0 0 112.76 14.6"><defs><style>.cls-1{fill:#1d1d1b;}</style></defs><title>logo-poste-italiane</title><g id="Layer_2" data-name="Layer 2"><g id="Layer_4" data-name="Layer 4"><path class="cls-1" d="M110.79,8.34c0-1.66-.71-2.94-2.52-2.94-1.56,0-2.49,1.32-2.49,2.94Zm-5,1.3c-.14,1.73.57,3.53,2.49,3.53a2.08,2.08,0,0,0,2.4-2h2c-.29,2.25-2,3.37-4.39,3.37-3.18,0-4.44-2.25-4.44-5.17S105.27,4,108.4,4c3,.06,4.36,1.93,4.36,4.67v.93ZM95.55,5.8h0a3.44,3.44,0,0,1,3-1.76c.69,0,3.75.18,3.75,3.35v6.84h-1.87V8c0-1.63-.69-2.52-2.27-2.52a2.56,2.56,0,0,0-1.81.73c-.28.28-.79.71-.79,2.64v5.38H93.72V4.34h1.83ZM88,9.42c-1.14.06-2.66.48-2.66,1.91a1.76,1.76,0,0,0,1.95,1.84c2.21,0,2.62-1.91,2.58-3.75Zm1.87-1.3c0-1.71-.09-2.72-2.09-2.72A1.69,1.69,0,0,0,86,7H84C84.09,4.81,85.78,4,87.74,4s4,.61,4,3.37v4.73c0,.44,0,1.27.08,2.09H90.59c-.17,0-.51.1-.53-.13,0-.46-.08-.89-.1-1.35h0a3.18,3.18,0,0,1-3.08,1.78c-1.71,0-3.45-.89-3.45-2.82,0-2.78,2.46-3.59,4.81-3.59ZM79.66,0h2.23V2H79.66Zm.18,4.34h1.87v9.89H79.84ZM75.64,0h1.87V14.23H75.64ZM70,9.42c-1.14.06-2.66.48-2.66,1.91a1.76,1.76,0,0,0,1.95,1.84c2.21,0,2.62-1.91,2.58-3.75Zm1.87-1.3c0-1.71-.1-2.72-2.09-2.72A1.69,1.69,0,0,0,68,7H66C66.09,4.81,67.78,4,69.73,4s4,.61,4,3.37v4.73c0,.44,0,1.27.08,2.09H72.59c-.18,0-.51.1-.53-.13,0-.46-.08-.89-.1-1.35h0a3.16,3.16,0,0,1-3.07,1.78c-1.72,0-3.45-.89-3.45-2.82,0-2.78,2.46-3.59,4.8-3.59ZM60.39,4.34V2.23l1.87-.59v2.7l2.29-.06v1.4l-2.29,0v6.39c0,.7.55,1,1.22,1a4.19,4.19,0,0,0,1-.12v1.44c-.43,0-.85.12-1.28.12a6.69,6.69,0,0,1-1.26-.1,1.82,1.82,0,0,1-1.11-.65c-.33-.47-.43-.51-.43-1.83V5.66l-1.69,0V4.28ZM55.34,0h2.22V2H55.34Zm.17,4.34h1.88v9.89H55.51Zm-19,.1V2.94l3.73-1.41V4.44h2.16V6.79H40.28V10.7c0,.26-.15,1.54.71,1.54a10.93,10.93,0,0,0,1.43-.06V14.4a10.22,10.22,0,0,1-2,.2c-2.54,0-4.07-.36-3.87-3.38V6.79H34.62V4.44Zm-6.15,3a1.18,1.18,0,0,0-.24-.82,1.29,1.29,0,0,0-1-.36.82.82,0,0,0-.89.89c0,.72,1.52.68,3.85,1.41a2.54,2.54,0,0,1,2,2.71c0,2.62-2.46,3.29-4.72,3.29-2.41,0-4.77-.5-4.75-3.5h3.54a1.08,1.08,0,0,0,.25.88,1.17,1.17,0,0,0,.88.45c.73,0,1.26-.27,1.26-.9,0-1.75-5.83-.71-5.83-4.28,0-2.44,2.59-3.11,4.56-3.11,2.33,0,4.5.61,4.65,3.34ZM18.15,12.43c1.58,0,1.91-1.67,1.91-3.06S19.73,6.3,18.15,6.3,16.25,8,16.25,9.37s.33,3.06,1.9,3.06m5.74-3.06c0,3.63-2.65,5.23-5.74,5.23S12.41,13,12.41,9.37s2.66-5.23,5.74-5.23,5.74,1.59,5.74,5.23M6,6.48c1.56-.06,2.21-.77,2.21-1.81S7.51,2.92,6,2.86h-2V6.48ZM0,14.3V.11H6.53c3.47,0,5.75,1.12,5.75,4.56S10,9.23,6.53,9.23H3.93V14.3ZM50.36,8.11a2.51,2.51,0,0,0-.45-1.47A1.39,1.39,0,0,0,48.62,6c-1.3.06-1.62,1-1.71,2.1Zm-3.53,2c0,1.27.31,2.37,1.71,2.37a1.61,1.61,0,0,0,1.82-1.41h3.46A3.58,3.58,0,0,1,52,13.83a5.85,5.85,0,0,1-3.13.77c-3.95,0-5.52-1.69-5.52-5.56,0-3.13,2.34-4.9,5.31-4.9,4,0,5.28,2.3,5.28,6Z"/></g></g></svg>