<svg xmlns="http://www.w3.org/2000/svg" viewBox="0 0 50.09 6.79"><defs><style>.cls-1{fill:#1d1d1b;}</style></defs><title>logo-bancoposta</title><g id="Layer_2" data-name="Layer 2"><g id="Layer_4" data-name="Layer 4"><path class="cls-1" d="M.92,5.86H2.46c.71,0,1.3-.31,1.3-1.13s-.59-1.14-1.3-1.14H.92Zm0-3.06H2.07c.87,0,1.49-.13,1.49-1s-.62-1-1.49-1H.92ZM0,6.65V0H2.38C3.52,0,4.53.44,4.53,1.73A1.5,1.5,0,0,1,3.4,3.17v0A1.63,1.63,0,0,1,4.73,4.91,1.7,1.7,0,0,1,3.52,6.52a2.84,2.84,0,0,1-1.14.13Z"/><path class="cls-1" d="M7.52,4.41c-.54,0-1.25.22-1.25.89a.83.83,0,0,0,.91.86c1,0,1.23-.9,1.21-1.75Zm.87-.61c0-.8-.05-1.27-1-1.27a.79.79,0,0,0-.86.73H5.63c0-1,.84-1.37,1.75-1.37s1.89.28,1.89,1.57V5.68c0,.2,0,.59,0,1H8.72c-.09,0-.25,0-.25-.06s0-.41-.05-.63h0A1.49,1.49,0,0,1,7,6.79c-.8,0-1.61-.41-1.61-1.32C5.35,4.18,6.5,3.8,7.6,3.8Z"/><path class="cls-1" d="M11.26,2.71h0a1.61,1.61,0,0,1,1.4-.82,1.59,1.59,0,0,1,1.75,1.57V6.65h-.88V3.74c0-.76-.32-1.18-1.05-1.18a1.2,1.2,0,0,0-.85.34c-.13.13-.37.33-.37,1.24V6.65h-.87V2h.85Z"/><path class="cls-1" d="M18.19,3.51c-.05-.58-.33-1-1-1-.84,0-1.16.72-1.16,1.81s.32,1.82,1.16,1.82c.58,0,.94-.38,1-1h.88a1.76,1.76,0,0,1-1.87,1.67c-1.49,0-2.07-1-2.07-2.41s.67-2.49,2.14-2.49a1.65,1.65,0,0,1,1.76,1.62Z"/><path class="cls-1" d="M21.81,6.16c1.05,0,1.39-.83,1.39-1.82s-.34-1.81-1.39-1.81-1.38.82-1.38,1.81.34,1.82,1.38,1.82m2.31-1.82a2.19,2.19,0,0,1-2.31,2.45,2.19,2.19,0,0,1-2.3-2.45,2.19,2.19,0,0,1,2.3-2.45,2.19,2.19,0,0,1,2.31,2.45"/><path class="cls-1" d="M27.68,3c.73,0,1-.36,1-.85s-.3-.82-1-.85h-.95V3Zm-2.8,3.66V0H28c1.63,0,2.7.53,2.7,2.14S29.58,4.28,28,4.28H26.73V6.65Z"/><path class="cls-1" d="M33.45,5.78c.74,0,.9-.78.9-1.44s-.16-1.44-.9-1.44-.89.79-.89,1.44.16,1.44.89,1.44m2.7-1.44a2.4,2.4,0,0,1-2.7,2.45,2.39,2.39,0,0,1-2.69-2.45,2.4,2.4,0,0,1,2.69-2.45,2.4,2.4,0,0,1,2.7,2.45"/><path class="cls-1" d="M39.08,3.46A.58.58,0,0,0,39,3.07a.61.61,0,0,0-.48-.17.38.38,0,0,0-.41.42c0,.34.71.32,1.8.66a1.2,1.2,0,0,1,.94,1.28c0,1.22-1.16,1.53-2.22,1.53s-2.24-.23-2.23-1.64H38a.55.55,0,0,0,.12.42.56.56,0,0,0,.42.21c.34,0,.59-.13.59-.43,0-.81-2.74-.33-2.74-2,0-1.15,1.22-1.46,2.14-1.46,1.09,0,2.11.28,2.18,1.57Z"/><path class="cls-1" d="M42,2v-.7L43.77.66V2h1v1.1h-1V5c0,.12-.07.72.34.72a4.79,4.79,0,0,0,.67,0v1a5.22,5.22,0,0,1-.94.09c-1.19,0-1.91-.16-1.82-1.58V3.13h-.9V2Z"/><path class="cls-1" d="M47.52,5.78c.76,0,.82-.71.82-1.33a2.31,2.31,0,0,0-1,.1.68.68,0,0,0-.46.62.6.6,0,0,0,.59.61m.89.87a2.35,2.35,0,0,1,0-.62h0a1.6,1.6,0,0,1-1.47.76c-1.09,0-1.67-.59-1.65-1.53,0-1.13,1.05-1.59,2.57-1.59h.54c0-.41.1-1-.6-1a.64.64,0,0,0-.56.71H45.54a1.25,1.25,0,0,1,.8-1.24,3.9,3.9,0,0,1,1.59-.28c.94,0,2.07.39,2.06,1.44V5.71c0,.19,0,.39.1.94Z"/></g></g></svg>