<svg xmlns="http://www.w3.org/2000/svg" viewBox="0 0 77.37 31.19"><defs><style>.cls-1{fill:#1d1d1b;}.cls-2{fill:#fff;}.cls-3{fill:none;stroke:#1d1d1b;stroke-miterlimit:10;stroke-width:1.24px;}</style></defs><title>logo-bollettino-postale</title><g id="Layer_2" data-name="Layer 2"><g id="Layer_4" data-name="Layer 4"><path class="cls-1" d="M76,15.17c0-.22.08-.4.34-.41a.26.26,0,0,1,.25.12.5.5,0,0,1,.09.29Zm1.38.4c0-.73-.25-1.18-1-1.18a1,1,0,0,0-1,1c0,.76.31,1.09,1.09,1.09A1.14,1.14,0,0,0,77,16.3a.74.74,0,0,0,.37-.54h-.69a.32.32,0,0,1-.36.28c-.27,0-.34-.22-.34-.47Zm-2.5-2h-.73v2.8h.73Zm-1.21,2.8c0-.24,0-.32,0-.4V15c0-.44-.47-.61-.86-.61a1.53,1.53,0,0,0-.67.12.53.53,0,0,0-.34.52h.69a.27.27,0,0,1,.24-.3c.29,0,.25.24.25.41h-.23c-.64,0-1.07.19-1.08.67s.23.64.7.64a.68.68,0,0,0,.62-.32h0a.94.94,0,0,0,0,.27Zm-1.33-.63a.29.29,0,0,1,.19-.26,1,1,0,0,1,.4,0c0,.26,0,.56-.34.56a.26.26,0,0,1-.25-.26m-2.51-1.32v.46h.38v.88c0,.59.26.66.76.66a1.58,1.58,0,0,0,.4,0V16h-.29c-.17,0-.14-.25-.14-.3v-.78h.43v-.46h-.43v-.58l-.73.28v.3Zm-.23.6c0-.54-.46-.66-.92-.66s-.9.13-.9.61c0,.71,1.15.5,1.15.85,0,.12-.1.18-.24.18a.24.24,0,0,1-.18-.09.24.24,0,0,1,0-.18h-.7c0,.6.47.69.94.69s.93-.13.93-.64a.5.5,0,0,0-.39-.54c-.46-.14-.76-.13-.76-.28a.16.16,0,0,1,.18-.17.23.23,0,0,1,.2.07.25.25,0,0,1,0,.16Zm-3.27-.66a1,1,0,1,0,1.13,1,1,1,0,0,0-1.13-1m-.38,1c0-.27.07-.6.38-.6s.37.33.37.6-.06.61-.37.61-.38-.33-.38-.61m-2.19-.6c.31,0,.35.35.35.6s0,.61-.35.61-.36-.36-.36-.61,0-.6.36-.6m-.36-.37h-.74v2.69h.74v-1h0a.71.71,0,0,0,.55.29c.62,0,.91-.48.91-1s-.25-1-.83-1a.7.7,0,0,0-.63.33h0Zm-3.54-.06a1,1,0,1,0,1.14,1,1,1,0,0,0-1.14-1m-.37,1c0-.27.06-.6.37-.6s.38.33.38.6-.07.61-.38.61-.37-.33-.37-.61m-2.53-1H56.2a4.6,4.6,0,0,1,0,.5V16.4H57V15.28s0-.42.32-.42.28.2.29.39V16.4h.73V15.09a.68.68,0,0,0-.73-.7.77.77,0,0,0-.61.27ZM55.7,13.6H55v.52h.74Zm0,.85H55V16.4h.74Zm-2.69,0v.46h.38v.88c0,.59.26.66.76.66a1.58,1.58,0,0,0,.4,0V16h-.28c-.17,0-.14-.25-.14-.3v-.78h.42v-.46h-.42v-.58l-.74.28v.3Zm-1.72,0v.46h.38v.88c0,.59.26.66.76.66a1.58,1.58,0,0,0,.4,0V16h-.29c-.17,0-.14-.25-.14-.3v-.78h.43v-.46H52.4v-.58l-.73.28v.3Zm-1.58.72c0-.22.08-.4.34-.41a.27.27,0,0,1,.25.12.5.5,0,0,1,.09.29Zm1.38.4c0-.73-.25-1.18-1-1.18a1,1,0,0,0-1,1c0,.76.31,1.09,1.09,1.09a1.14,1.14,0,0,0,.62-.15.7.7,0,0,0,.36-.54h-.68A.32.32,0,0,1,50,16c-.27,0-.34-.22-.34-.47Zm-2.5-2h-.73v2.8h.73Zm-1.29,0h-.74v2.8h.74ZM45,14.39a1,1,0,1,0,1.14,1,1,1,0,0,0-1.14-1m-.37,1c0-.27.06-.6.37-.6s.38.33.38.6S45.3,16,45,16s-.37-.33-.37-.61m-3.29,1h.72l0-.29h0a.56.56,0,0,0,.54.34c.64,0,.91-.47.91-1.06s-.27-1-.87-1a.76.76,0,0,0-.59.26h0V13.6h-.74Zm1.1-1.58c.31,0,.35.35.35.59s-.05.62-.38.62-.33-.36-.33-.58,0-.63.36-.63"/><path class="cls-1" d="M55.76,10.1a1,1,0,1,0,1.13,1,1,1,0,0,0-1.13-1m-.38,1c0-.28.07-.61.38-.61s.38.33.38.61-.07.6-.38.6-.38-.33-.38-.6m-2.59-1v.47h.38v.87c0,.6.27.67.77.67a2.13,2.13,0,0,0,.39,0v-.44h-.28c-.17,0-.14-.25-.14-.3v-.77h.43v-.47h-.43V9.59l-.74.28v.29Zm-.32-.85h-.74v.52h.74Zm0,.85h-.74v1.95h.74Zm-2,1.95h.75a4.75,4.75,0,0,1,0-.5V10.16h-.73v1.12s0,.42-.32.42-.28-.2-.28-.39V10.16h-.74v1.3a.68.68,0,0,0,.73.71.76.76,0,0,0,.61-.27Zm-1.75-1.27c0-.55-.5-.74-1-.74a1,1,0,0,0-1.07,1c0,.67.33,1,1.07,1a1.34,1.34,0,0,0,.69-.21.73.73,0,0,0,.3-.61H48c0,.17,0,.37-.28.39s-.29-.4-.29-.6,0-.61.29-.61a.27.27,0,0,1,.23.09.36.36,0,0,1,0,.22Zm-3-.68H45c0,.21,0,.33,0,.5v1.45h.74v-.78c0-.37.12-.6.5-.61h.15V10.1a.58.58,0,0,0-.65.43h0ZM44.5,9.31h-.74v.52h.74Zm0,.85h-.74v1.95h.74Zm-1.16.68c0-.55-.5-.74-1-.74a1,1,0,0,0-1.07,1c0,.67.34,1,1.07,1A1.34,1.34,0,0,0,43,12a.73.73,0,0,0,.3-.61H42.6c0,.17,0,.37-.29.39s-.28-.4-.28-.6,0-.61.28-.61a.25.25,0,0,1,.23.09.3.3,0,0,1,.06.22Z"/><path class="cls-1" d="M15.6,0A15.6,15.6,0,1,0,31.19,15.6,15.62,15.62,0,0,0,15.6,0"/><polygon class="cls-2" points="29.14 13.18 29.43 15.06 28.09 13.71 29.96 14.02 28.27 14.87 29.14 13.18"/><polygon class="cls-2" points="28.85 12.03 29.44 11.6 28.71 11.6 28.49 10.91 28.27 11.6 27.54 11.6 28.13 12.03 27.9 12.72 28.49 12.29 29.08 12.72 28.85 12.03"/><polygon class="cls-2" points="29.43 15.53 29.39 17.42 28.31 15.86 30.1 16.49 28.28 17.04 29.43 15.53"/><polygon class="cls-2" points="29.31 17.88 28.94 19.75 28.15 18.02 29.8 18.95 27.92 19.17 29.31 17.88"/><polygon class="cls-2" points="28.79 20.18 28.1 21.95 27.61 20.12 29.09 21.32 27.19 21.21 28.79 20.18"/><polygon class="cls-2" points="2.35 13.18 2.06 15.06 3.4 13.71 1.53 14.02 3.22 14.87 2.35 13.18"/><polygon class="cls-2" points="2.06 15.53 2.1 17.42 3.18 15.86 1.39 16.49 3.21 17.04 2.06 15.53"/><polygon class="cls-2" points="3 10.91 2.41 12.72 3.95 11.6 2.05 11.6 3.59 12.72 3 10.91"/><polygon class="cls-2" points="2.18 17.88 2.55 19.75 3.34 18.02 1.69 18.95 3.57 19.17 2.18 17.88"/><polygon class="cls-2" points="2.7 20.18 3.39 21.95 3.88 20.12 2.4 21.32 4.3 21.21 2.7 20.18"/><path class="cls-2" d="M25.81,8.78,27.57,7.7l.71,1.16L28,9.05l-.5-.82-.41.26.43.69-.31.19-.43-.7-.42.27.5.81-.31.19Zm-1-1.24,1.6-1.31.25.32L25.36,7.62l.59.73-.28.23Zm.24-1.81-.7.37.37.35Zm-.64,1.39.16-.35-.54-.5-.34.18-.3-.29,2-1,.23.21-.86,2Zm-.35-2.55L23.08,6l-.33-.24,1-1.38L23.32,4l.21-.29,1.2.88-.21.29ZM21.52,5a1,1,0,0,1-.53-.6l.36-.1a.67.67,0,0,0,.35.39c.21.11.37.09.45,0a.23.23,0,0,0,0-.18.34.34,0,0,0-.12-.16l-.21-.15a.66.66,0,0,1-.27-.34.63.63,0,0,1,.07-.43.63.63,0,0,1,.93-.2.87.87,0,0,1,.47.53l-.34.1a.63.63,0,0,0-.31-.33c-.19-.1-.33-.05-.4.08a.18.18,0,0,0,0,.16.37.37,0,0,0,.13.16l.2.15a.67.67,0,0,1,.27.33.64.64,0,0,1-.07.46.67.67,0,0,1-1,.18m-.68-2.12a.34.34,0,0,0-.2-.19.36.36,0,0,0-.29,0c-.1.05-.15.14-.29.51s-.16.47-.11.58a.34.34,0,0,0,.2.19.34.34,0,0,0,.28,0c.11,0,.16-.14.3-.51s.15-.47.11-.58m-.21,1.42a.73.73,0,0,1-.6,0,.76.76,0,0,1-.45-.41c-.12-.27,0-.51.1-.84s.21-.58.48-.7a.73.73,0,0,1,.6,0,.79.79,0,0,1,.45.41c.12.27,0,.51-.1.84s-.22.58-.48.7m-1.8-2.14-.37-.08-.12.55.37.08a.27.27,0,0,0,.35-.21.27.27,0,0,0-.23-.34M18.65,3,18.26,3l-.17.76-.39-.09.45-2,.78.17a.64.64,0,0,1,.52.78.63.63,0,0,1-.8.48M16,3.31c.4,0,.64-.35.65-.8s-.18-.79-.6-.8-.64.37-.65.79.2.8.6.81Zm0,.21a.91.91,0,0,1-.85-1,.93.93,0,0,1,.93-1,.89.89,0,0,1,.86,1,.93.93,0,0,1-.93,1Zm-2.56.15-.25-1.94.28,0,.74.9a4.83,4.83,0,0,1,.43.59h0a7.66,7.66,0,0,1-.13-.79l-.11-.81.24,0,.25,1.94-.26,0-.74-.91a4.84,4.84,0,0,1-.44-.6h0c.05.24.08.47.12.79l.11.83Zm-.79-1.81.44,1.91-.25,0-.44-1.9Zm-1.31.59-.56.18-.07-.21L12.07,2l.07.21-.57.18L12.1,4l-.24.08Zm-1.55.61-.54.25-.09-.19,1.32-.61.09.2L10,3l.72,1.58-.23.11ZM9.34,4.2l-.64.39.36.6.72-.44.11.19L9,5.5l-1-1.67.91-.55L9,3.47l-.69.41.32.53L9.24,4Zm-2.61.51.21-.15L8,6l.67-.51.13.17-.87.66Zm-1.1,1,.18-.18L7,6.81l.6-.57.15.15L7,7.14Zm.45,2.16a.71.71,0,0,0-.23-1,.7.7,0,0,0-1,0c-.27.33-.1.73.23,1a.7.7,0,0,0,1,0ZM6.23,8a.89.89,0,0,1-1.32.05.93.93,0,0,1-.23-1.35A.91.91,0,0,1,6,6.66.92.92,0,0,1,6.23,8ZM4.92,9.53,5,9.36c.13-.22.18-.48-.07-.63s-.44,0-.58.24l-.11.18Zm-.8-.48.12-.2a.37.37,0,0,0-.07-.53c-.19-.11-.36,0-.49.2a.87.87,0,0,0-.1.2Zm-.82-.2a2.56,2.56,0,0,1,.2-.42.88.88,0,0,1,.4-.38.4.4,0,0,1,.38,0,.45.45,0,0,1,.2.5h0a.48.48,0,0,1,.62-.09.49.49,0,0,1,.25.34,1,1,0,0,1-.19.67,2.5,2.5,0,0,1-.23.33Z"/><path class="cls-2" d="M5.69,23.43l-.27-.34-.52.4.27.35a.32.32,0,0,0,.47.06.32.32,0,0,0,.05-.47m-.83.68-.28-.36-.71.56L3.58,24l1.87-1.48.58.72a.75.75,0,1,1-1.17.92"/><path class="cls-2" d="M7.14,25.11a.38.38,0,0,0-.13-.3.42.42,0,0,0-.31-.11c-.13,0-.22.08-.53.42s-.37.43-.37.57a.4.4,0,0,0,.14.3.39.39,0,0,0,.3.1c.14,0,.23-.07.54-.41s.36-.44.36-.57m-.83,1.42a.87.87,0,0,1-.65-.24.86.86,0,0,1-.3-.63c0-.34.19-.55.46-.86s.48-.52.82-.54a.84.84,0,0,1,.65.25.86.86,0,0,1,.3.62c0,.34-.19.56-.47.86s-.47.53-.81.54"/><path class="cls-2" d="M7.41,27.67a1.15,1.15,0,0,1-.55-.74l.42-.09a.75.75,0,0,0,.37.49c.23.15.41.14.51,0a.22.22,0,0,0,.05-.2c0-.07-.05-.11-.13-.19l-.22-.19a.83.83,0,0,1-.27-.42.65.65,0,0,1,.11-.49.74.74,0,0,1,1.09-.14,1,1,0,0,1,.49.66l-.4.08A.68.68,0,0,0,8.56,26c-.21-.14-.38-.09-.47,0a.22.22,0,0,0,0,.18.52.52,0,0,0,.13.2l.22.19a.77.77,0,0,1,.27.4.68.68,0,0,1-.12.52.77.77,0,0,1-1.14.12"/><polygon class="cls-2" points="10.39 27.05 9.56 28.84 9.14 28.64 9.97 26.86 9.41 26.59 9.58 26.22 11.13 26.94 10.96 27.32 10.39 27.05"/><polygon class="cls-2" points="10.68 29.3 11.36 27.02 12.87 27.47 12.75 27.86 11.69 27.55 11.53 28.09 12.43 28.35 12.31 28.75 11.41 28.48 11.25 29.04 12.31 29.35 12.19 29.75 10.68 29.3"/><rect class="cls-2" x="13.6" y="28.68" width="2.38" height="0.47" transform="translate(-14.96 41.93) rotate(-86.53)"/><polygon class="cls-2" points="16.49 28.14 16.59 30.1 16.12 30.13 16.02 28.16 15.4 28.19 15.38 27.78 17.09 27.69 17.11 28.11 16.49 28.14"/><path class="cls-2" d="M18.05,28.22l-.13.91L18.5,29Zm.86,1.55-.22-.39-.83.16L17.8,30l-.48.09.41-2.5.36-.07,1.3,2.18Z"/><polygon class="cls-2" points="19.88 29.51 19.08 27.27 19.52 27.11 20.18 28.96 21.2 28.6 21.34 28.99 19.88 29.51"/><rect class="cls-2" x="21.27" y="26.39" width="0.46" height="2.38" transform="translate(-9.89 12.17) rotate(-25.91)"/><path class="cls-2" d="M22.65,26.38l.21.89.5-.32ZM24,27.49l-.34-.27-.72.45.11.43-.41.27-.56-2.48.31-.19,2,1.53Z"/><polygon class="cls-2" points="25.9 25.94 24.21 25.5 25.2 26.58 24.86 26.89 23.25 25.13 23.56 24.85 25.24 25.3 24.25 24.22 24.6 23.9 26.2 25.66 25.9 25.94"/><polygon class="cls-2" points="26.73 25.07 24.86 23.6 25.83 22.37 26.15 22.62 25.47 23.49 25.91 23.84 26.49 23.09 26.82 23.35 26.24 24.09 26.69 24.45 27.38 23.58 27.7 23.84 26.73 25.07"/><path class="cls-2" d="M26.25,15.52A10.66,10.66,0,1,1,15.6,4.87,10.65,10.65,0,0,1,26.25,15.52"/><path class="cls-1" d="M13.27,6.54c3.06.35,4.88.58,5.48.68a6.73,6.73,0,0,1,1.3.35,5.12,5.12,0,0,1,.79.43,4.13,4.13,0,0,1,.74.76,4.29,4.29,0,0,1,.77,2.46v.08a3,3,0,0,1-1.18,2.64,2.23,2.23,0,0,0-.34.21h0a3.32,3.32,0,0,1,1.56,1.9,4,4,0,0,1,.24,1.29v.49c0,1.3-.19,2.29-1.15,3a29.29,29.29,0,0,1-3.34,2.28,5.09,5.09,0,0,1-2.22.44h0q-.73,0-3.42-.33L9.86,22.9h0q0-4.92,0-14.11C12,7.36,13.14,6.62,13.27,6.54m5.17,14.61a3.93,3.93,0,0,0,.33-.75,4.29,4.29,0,0,0,.16-.93,4.2,4.2,0,0,0-.23-1.58A3.78,3.78,0,0,0,18,16.63a3.89,3.89,0,0,0-.3-.29,1.86,1.86,0,0,0-.28-.21L17.19,16l-.05,0,.08-.06.31-.2a1.85,1.85,0,0,0,.26-.22l.15-.14a3,3,0,0,0,.35-.52,3.6,3.6,0,0,0,.26-.68,3.4,3.4,0,0,0,.08-.53,5.12,5.12,0,0,0,0-.56V13a4.45,4.45,0,0,0-.21-1.28,5.23,5.23,0,0,0-.58-1.16,4.42,4.42,0,0,0-.47-.5A1.89,1.89,0,0,0,17,9.75a2.1,2.1,0,0,0-.22-.15,2,2,0,0,0-.43-.2,2.31,2.31,0,0,0-.52-.11l-.79-.11L12.76,9l-2.28-.1c0,1.27,0,3,0,5.22s0,5,0,8.24c1.66.21,2.95.36,3.88.45a9.56,9.56,0,0,0,1.66,0,3,3,0,0,0,1.52-.64,3.69,3.69,0,0,0,.92-1.06m-5.71-4.58a15.61,15.61,0,0,1,2.38.38,1.53,1.53,0,0,1,.49.26,2.24,2.24,0,0,1,.73,1.84A1.6,1.6,0,0,1,14.69,21h0c-.19,0-.84-.07-1.94-.22,0-1,0-1.78,0-2.28V16.59s0,0,0,0m0-5.6a13,13,0,0,1,2.2.29,1.63,1.63,0,0,1,.94.77,2.52,2.52,0,0,1,.25,1.14c0,.83-.21,1.35-.62,1.55a2,2,0,0,1-1,.2,14.27,14.27,0,0,1-1.8-.18Z"/><line class="cls-3" x1="36.28" y1="7.57" x2="36.28" y2="23.79"/><path class="cls-1" d="M41.58,20.42h.65c.3,0,.56-.14.56-.49s-.26-.48-.56-.48h-.65Zm0-1.31h.48c.38,0,.64-.05.64-.43s-.26-.44-.64-.43h-.48Zm-.4,1.65V17.92h1c.48,0,.91.18.91.74a.64.64,0,0,1-.48.61h0a.69.69,0,0,1,.57.73.74.74,0,0,1-.52.69,1.24,1.24,0,0,1-.48.06Z"/><path class="cls-1" d="M44.39,19.8c-.23,0-.53.09-.53.38a.35.35,0,0,0,.39.36c.44,0,.52-.38.51-.74Zm.37-.26c0-.34,0-.55-.41-.55a.33.33,0,0,0-.37.32h-.4c0-.44.36-.59.75-.59s.81.12.81.67v.95c0,.09,0,.25,0,.42H44.9s-.1,0-.1,0a2.45,2.45,0,0,1,0-.27h0a.63.63,0,0,1-.62.36.6.6,0,0,1-.68-.57c0-.55.49-.71,1-.71Z"/><path class="cls-1" d="M46,19.07h0a.67.67,0,0,1,.59-.35.68.68,0,0,1,.75.67v1.37H47V19.51c0-.32-.14-.5-.45-.5a.53.53,0,0,0-.37.15c0,.05-.15.14-.15.52v1.08h-.38v-2H46Z"/><path class="cls-1" d="M49,19.42c0-.25-.14-.43-.41-.43s-.49.31-.49.78.13.77.49.77.4-.16.42-.44h.38a.77.77,0,0,1-.8.72c-.64,0-.89-.45-.89-1s.29-1.06.92-1.06a.71.71,0,0,1,.75.7Z"/><path class="cls-1" d="M50.49,20.54c.45,0,.6-.35.6-.77s-.15-.78-.6-.78-.59.36-.59.78.15.77.59.77m1-.77a1,1,0,1,1-2,0,1,1,0,1,1,2,0"/><path class="cls-1" d="M53,19.19c.31,0,.44-.15.44-.36s-.13-.35-.44-.36h-.41v.72Zm-1.19,1.57V17.92h1.3c.7,0,1.16.22,1.16.91s-.46.91-1.16.91h-.52v1Z"/><path class="cls-1" d="M55.47,20.38c.31,0,.38-.33.38-.61s-.07-.61-.38-.61-.39.33-.39.61.07.61.39.61m1.14-.61a1.15,1.15,0,1,1-1.14-1.05,1,1,0,0,1,1.14,1.05"/><path class="cls-1" d="M57.87,19.39a.21.21,0,0,0,0-.16.23.23,0,0,0-.2-.07.16.16,0,0,0-.18.17c0,.15.3.14.77.29a.5.5,0,0,1,.4.54c0,.52-.49.66-1,.66s-.95-.1-.95-.7h.71a.23.23,0,0,0,0,.17.26.26,0,0,0,.18.09c.15,0,.25-.05.25-.18,0-.35-1.17-.14-1.17-.86,0-.48.52-.62.91-.62s.91.12.94.67Z"/><path class="cls-1" d="M59.12,18.78v-.3l.75-.28v.58h.44v.47h-.44V20c0,.05,0,.3.14.3h.29v.45a2.23,2.23,0,0,1-.4,0c-.51,0-.81-.08-.78-.68v-.89h-.38v-.47Z"/><path class="cls-1" d="M61.47,20.38c.33,0,.35-.3.35-.56a1.06,1.06,0,0,0-.41,0,.28.28,0,0,0-.19.26.25.25,0,0,0,.25.26m.38.38a1.86,1.86,0,0,1,0-.27h0a.69.69,0,0,1-.63.33.62.62,0,0,1-.71-.66c0-.48.45-.68,1.1-.68h.23c0-.17,0-.42-.26-.41a.26.26,0,0,0-.23.3h-.71a.54.54,0,0,1,.35-.53,1.74,1.74,0,0,1,.68-.12c.4,0,.88.17.87.62v1c0,.08,0,.17,0,.41Z"/></g></g></svg>