<svg xmlns="http://www.w3.org/2000/svg" viewBox="0 0 34.67 22.99"><defs><style>.cls-1{fill:#1d1d1b;}</style></defs><title>logo-pagopa</title><g id="Layer_2" data-name="Layer 2"><g id="Layer_1-2" data-name="Layer 1"><path class="cls-1" d="M24.43,6.89v2.9H22.3V0h3.92c1.26,0,1.9.34,1.91,1V5.79c0,.68-.62,1-1.85,1H24.43ZM26,1.13H24.42V5.67H26Z"/><path class="cls-1" d="M1.78,9.8v2.91H0V2.91H3.28c1.06,0,1.59.34,1.6,1V8.71c0,.67-.52,1-1.54,1H1.78ZM3.11,4.05H1.78V8.59H3.11Z"/><path class="cls-1" d="M10.36,9.72H7c-1,0-1.49-.34-1.49-1v-2C5.5,6,6,5.7,7,5.7H8.59V4.05H7.26V5H5.51v-1c0-.67.52-1,1.57-1l1.73,0q1.55,0,1.56,1ZM7.26,8.59H8.6V6.84H7.26Z"/><path class="cls-1" d="M14.24,9.72H12.68c-1,0-1.54-.34-1.54-1V3.93c0-.68.54-1,1.6-1H16v8.78c0,.68-.52,1-1.55,1H12.69c-1,0-1.55-.34-1.55-1v-1h1.77v.89h1.33V9.72ZM12.91,8.59h1.33V4.05H12.91Z"/><path class="cls-1" d="M21.5,8.71c0,.67-.53,1-1.59,1H18.19c-1,0-1.56-.34-1.56-1V3.93q0-1,1.56-1H20c1,0,1.54.34,1.54,1ZM19.74,4.05H18.4V8.59h1.33Z"/><path class="cls-1" d="M34.67,1.07c0-.68-.62-1-1.85-1H30.7q-1.86,0-1.86,1V9.81H31v-3h1.6v2.5a11.58,11.58,0,0,1-20.71,7.11l1.06-.81L8.66,12.76l.19,6,1.35-1.09A13.68,13.68,0,0,0,34.67,9.31ZM32.56,5.69H31V1.19h1.6Z"/></g></g></svg>